<svg width="42" height="43" viewBox="0 0 42 43" fill="none" xmlns="http://www.w3.org/2000/svg">
<path d="M25.9998 15.6276C25.3164 14.8471 24.9397 13.845 24.9398 12.8076H21.8498V25.2076C21.8265 25.8788 21.5433 26.5147 21.0601 26.9811C20.5769 27.4475 19.9314 27.708 19.2598 27.7076C17.8398 27.7076 16.6598 26.5476 16.6598 25.1076C16.6598 23.3876 18.3198 22.0976 20.0298 22.6276V19.4676C16.5798 19.0076 13.5598 21.6876 13.5598 25.1076C13.5598 28.4376 16.3198 30.8076 19.2498 30.8076C22.3898 30.8076 24.9398 28.2576 24.9398 25.1076V18.8176C26.1928 19.7175 27.6972 20.2003 29.2398 20.1976V17.1076C29.2398 17.1076 27.3598 17.1976 25.9998 15.6276Z" fill="black"/>
</svg>
