<svg width="24" height="25" viewBox="0 0 24 25" fill="none" xmlns="http://www.w3.org/2000/svg">
<g id="tdesign:location" clip-path="url(#clip0_3287_1562)">
<path id="Vector" d="M12 3.90005C10.1435 3.90005 8.36301 4.63755 7.05025 5.9503C5.7375 7.26305 5 9.04353 5 10.9C5 13.762 6.782 16.523 8.738 18.662C9.73814 19.7517 10.8294 20.754 12 21.658C12.1747 21.524 12.3797 21.3607 12.615 21.168C13.5548 20.3963 14.4393 19.5596 15.262 18.664C17.218 16.523 19 13.763 19 10.9C19 9.04353 18.2625 7.26305 16.9497 5.9503C15.637 4.63755 13.8565 3.90005 12 3.90005ZM12 24.114L11.433 23.724L11.43 23.722L11.424 23.717L11.404 23.703L11.329 23.65L11.059 23.453C9.69086 22.4248 8.41988 21.2733 7.262 20.013C5.218 17.775 3 14.536 3 10.899C3 8.5121 3.94821 6.22291 5.63604 4.53509C7.32387 2.84726 9.61305 1.89905 12 1.89905C14.3869 1.89905 16.6761 2.84726 18.364 4.53509C20.0518 6.22291 21 8.5121 21 10.899C21 14.536 18.782 17.776 16.738 20.011C15.5804 21.2713 14.3098 22.4228 12.942 23.451C12.8281 23.5362 12.713 23.6198 12.597 23.702L12.576 23.716L12.57 23.721L12.568 23.722L12 24.114ZM12 8.90005C11.4696 8.90005 10.9609 9.11076 10.5858 9.48583C10.2107 9.86091 10 10.3696 10 10.9C10 11.4305 10.2107 11.9392 10.5858 12.3143C10.9609 12.6893 11.4696 12.9 12 12.9C12.5304 12.9 13.0391 12.6893 13.4142 12.3143C13.7893 11.9392 14 11.4305 14 10.9C14 10.3696 13.7893 9.86091 13.4142 9.48583C13.0391 9.11076 12.5304 8.90005 12 8.90005ZM8 10.9C8 9.83918 8.42143 8.82177 9.17157 8.07162C9.92172 7.32148 10.9391 6.90005 12 6.90005C13.0609 6.90005 14.0783 7.32148 14.8284 8.07162C15.5786 8.82177 16 9.83918 16 10.9C16 11.9609 15.5786 12.9783 14.8284 13.7285C14.0783 14.4786 13.0609 14.9 12 14.9C10.9391 14.9 9.92172 14.4786 9.17157 13.7285C8.42143 12.9783 8 11.9609 8 10.9Z" fill="#F6F3EE"/>
</g>
<defs>
<clipPath id="clip0_3287_1562">
<rect width="24" height="24" fill="white" transform="translate(0 0.900024)"/>
</clipPath>
</defs>
</svg>
