<svg width="42" height="43" viewBox="0 0 42 43" fill="none" xmlns="http://www.w3.org/2000/svg">
<path d="M19.0669 23.7077L23.5649 21.1077L19.0669 18.5077V23.7077ZM29.0855 16.9217C29.1982 17.329 29.2762 17.875 29.3282 18.5683C29.3889 19.2617 29.4149 19.8597 29.4149 20.3797L29.4669 21.1077C29.4669 23.0057 29.3282 24.401 29.0855 25.2937C28.8689 26.0737 28.3662 26.5763 27.5862 26.793C27.1789 26.9057 26.4335 26.9837 25.2895 27.0357C24.1629 27.0963 23.1315 27.1223 22.1782 27.1223L20.8002 27.1743C17.1689 27.1743 14.9069 27.0357 14.0142 26.793C13.2342 26.5763 12.7315 26.0737 12.5149 25.2937C12.4022 24.8863 12.3242 24.3403 12.2722 23.647C12.2115 22.9537 12.1855 22.3557 12.1855 21.8357L12.1335 21.1077C12.1335 19.2097 12.2722 17.8143 12.5149 16.9217C12.7315 16.1417 13.2342 15.639 14.0142 15.4223C14.4215 15.3097 15.1669 15.2317 16.3109 15.1797C17.4375 15.119 18.4689 15.093 19.4222 15.093L20.8002 15.041C24.4315 15.041 26.6935 15.1797 27.5862 15.4223C28.3662 15.639 28.8689 16.1417 29.0855 16.9217Z" fill="#3A3634"/>
</svg>
