<svg width="42" height="43" viewBox="0 0 42 43" fill="none" xmlns="http://www.w3.org/2000/svg">
<path d="M17.7822 12.5488H25.5172C28.4639 12.5488 30.8581 14.943 30.8581 17.8897V25.6247C30.8581 27.0411 30.2954 28.3996 29.2938 29.4012C28.2922 30.4028 26.9337 30.9655 25.5172 30.9655H17.7822C14.8356 30.9655 12.4414 28.5713 12.4414 25.6247V17.8897C12.4414 16.4732 13.0041 15.1147 14.0057 14.1131C15.0073 13.1115 16.3658 12.5488 17.7822 12.5488ZM17.5981 14.3905C16.7189 14.3905 15.8757 14.7398 15.254 15.3614C14.6323 15.9831 14.2831 16.8263 14.2831 17.7055V25.8088C14.2831 27.6413 15.7656 29.1238 17.5981 29.1238H25.7014C26.5806 29.1238 27.4238 28.7746 28.0455 28.1529C28.6672 27.5312 29.0164 26.688 29.0164 25.8088V17.7055C29.0164 15.873 27.5339 14.3905 25.7014 14.3905H17.5981ZM26.4841 15.7717C26.7894 15.7717 27.0822 15.893 27.298 16.1089C27.5139 16.3247 27.6352 16.6175 27.6352 16.9228C27.6352 17.2281 27.5139 17.5208 27.298 17.7367C27.0822 17.9526 26.7894 18.0738 26.4841 18.0738C26.1788 18.0738 25.8861 17.9526 25.6702 17.7367C25.4543 17.5208 25.3331 17.2281 25.3331 16.9228C25.3331 16.6175 25.4543 16.3247 25.6702 16.1089C25.8861 15.893 26.1788 15.7717 26.4841 15.7717ZM21.6497 17.153C22.8708 17.153 24.0419 17.6381 24.9054 18.5015C25.7688 19.365 26.2539 20.5361 26.2539 21.7572C26.2539 22.9783 25.7688 24.1494 24.9054 25.0128C24.0419 25.8762 22.8708 26.3613 21.6497 26.3613C20.4286 26.3613 19.2576 25.8762 18.3941 25.0128C17.5307 24.1494 17.0456 22.9783 17.0456 21.7572C17.0456 20.5361 17.5307 19.365 18.3941 18.5015C19.2576 17.6381 20.4286 17.153 21.6497 17.153ZM21.6497 18.9947C20.9171 18.9947 20.2144 19.2857 19.6964 19.8038C19.1783 20.3218 18.8872 21.0245 18.8872 21.7572C18.8872 22.4898 19.1783 23.1925 19.6964 23.7105C20.2144 24.2286 20.9171 24.5197 21.6497 24.5197C22.3824 24.5197 23.0851 24.2286 23.6031 23.7105C24.1212 23.1925 24.4122 22.4898 24.4122 21.7572C24.4122 21.0245 24.1212 20.3218 23.6031 19.8038C23.0851 19.2857 22.3824 18.9947 21.6497 18.9947Z" fill="#3A3634"/>
</svg>
