<svg width="25" height="25" viewBox="0 0 25 25" fill="none" xmlns="http://www.w3.org/2000/svg">
<g id="mdi:instagram">
<path id="Vector" d="M7.83198 2.0083H16.267C19.4803 2.0083 22.0911 4.61913 22.0911 7.83247V16.2675C22.0911 17.8121 21.4775 19.2935 20.3853 20.3858C19.293 21.478 17.8116 22.0916 16.267 22.0916H7.83198C4.61865 22.0916 2.00781 19.4808 2.00781 16.2675V7.83247C2.00781 6.2878 2.62143 4.8064 3.71367 3.71416C4.80592 2.62192 6.28731 2.0083 7.83198 2.0083ZM7.63115 4.01663C6.67239 4.01663 5.7529 4.3975 5.07496 5.07544C4.39701 5.75339 4.01615 6.67288 4.01615 7.63164V16.4683C4.01615 18.4666 5.63285 20.0833 7.63115 20.0833H16.4678C17.4266 20.0833 18.3461 19.7024 19.024 19.0245C19.702 18.3466 20.0828 17.4271 20.0828 16.4683V7.63164C20.0828 5.63334 18.4661 4.01663 16.4678 4.01663H7.63115ZM17.3214 5.52288C17.6543 5.52288 17.9735 5.65513 18.2089 5.89053C18.4443 6.12592 18.5766 6.44519 18.5766 6.77809C18.5766 7.111 18.4443 7.43026 18.2089 7.66566C17.9735 7.90106 17.6543 8.0333 17.3214 8.0333C16.9885 8.0333 16.6692 7.90106 16.4338 7.66566C16.1984 7.43026 16.0661 7.111 16.0661 6.77809C16.0661 6.44519 16.1984 6.12592 16.4338 5.89053C16.6692 5.65513 16.9885 5.52288 17.3214 5.52288ZM12.0495 7.02913C13.3811 7.02914 14.6582 7.55811 15.5997 8.4997C16.5413 9.44129 17.0703 10.7184 17.0703 12.05C17.0703 13.3816 16.5413 14.6586 15.5997 15.6002C14.6582 16.5418 13.3811 17.0708 12.0495 17.0708C10.7179 17.0708 9.4408 16.5418 8.49922 15.6002C7.55763 14.6586 7.02865 13.3816 7.02865 12.05C7.02865 10.7184 7.55763 9.44129 8.49922 8.4997C9.4408 7.55811 10.7179 7.02914 12.0495 7.02913ZM12.0495 9.03747C11.2505 9.03747 10.4843 9.35486 9.91932 9.91981C9.35437 10.4848 9.03698 11.251 9.03698 12.05C9.03698 12.8489 9.35437 13.6152 9.91932 14.1801C10.4843 14.7451 11.2505 15.0625 12.0495 15.0625C12.8484 15.0625 13.6147 14.7451 14.1796 14.1801C14.7446 13.6152 15.062 12.8489 15.062 12.05C15.062 11.251 14.7446 10.4848 14.1796 9.91981C13.6147 9.35486 12.8484 9.03747 12.0495 9.03747Z" fill="white"/>
</g>
</svg>
