<svg width="43" height="43" viewBox="0 0 43 43" fill="none" xmlns="http://www.w3.org/2000/svg">
<path fill-rule="evenodd" clip-rule="evenodd" d="M21.9529 17.6359V19.4744C22.3379 18.8879 22.8685 18.4115 23.4929 18.0917C24.1173 17.7719 24.814 17.6197 25.5149 17.65C29.2578 17.65 30.067 19.99 30.067 23.0342V29.2319H26.6004V23.7373C26.6004 22.4264 26.336 20.7408 24.295 20.7408C22.3158 20.7408 21.9778 22.1675 21.9778 23.6398V29.2319H18.522V17.6359H21.9529ZM16.2004 14.7218C16.1999 15.0652 16.0981 15.4008 15.9077 15.6866C15.7173 15.9724 15.4468 16.1957 15.13 16.3284C14.8134 16.46 14.4648 16.4944 14.1285 16.4272C13.7923 16.3601 13.4836 16.1945 13.2418 15.9514C12.9995 15.7081 12.8346 15.3986 12.7677 15.0619C12.7008 14.7252 12.735 14.3762 12.866 14.0588C12.9969 13.7414 13.2188 13.4699 13.5037 13.2783C13.7886 13.0867 14.1237 12.9836 14.467 12.9819C14.6952 12.9819 14.9211 13.027 15.1319 13.1145C15.3426 13.202 15.534 13.3303 15.695 13.4919C15.856 13.6536 15.9836 13.8454 16.0703 14.0565C16.157 14.2675 16.2012 14.4936 16.2004 14.7218Z" fill="#3A3634"/>
<path d="M16.2001 17.6499H12.7334V29.2318H16.2001V17.6499Z" fill="#3A3634"/>
</svg>
