<svg width="32" height="32" viewBox="0 0 32 32" fill="none" xmlns="http://www.w3.org/2000/svg">
<g id="mingcute:book-line">
<g id="Group">
<path id="Vector" fill-rule="evenodd" clip-rule="evenodd" d="M13.3334 4C14.2223 4 15.1112 4.33778 16.0001 5.01333C16.889 4.33778 17.7779 4 18.6667 4H26.6667C27.374 4 28.0523 4.28095 28.5524 4.78105C29.0525 5.28115 29.3334 5.95942 29.3334 6.66667V24C29.3334 24.7072 29.0525 25.3855 28.5524 25.8856C28.0523 26.3857 27.374 26.6667 26.6667 26.6667H17.3334C17.3334 27.4027 16.7334 28 16.0001 28C15.2667 28 14.6667 27.4 14.6667 26.6667H5.33341C4.62617 26.6667 3.94789 26.3857 3.4478 25.8856C2.9477 25.3855 2.66675 24.7072 2.66675 24V6.66667C2.66675 5.95942 2.9477 5.28115 3.4478 4.78105C3.94789 4.28095 4.62617 4 5.33341 4H13.3334ZM13.3334 6.66667H5.33341V24H14.6667V8C14.6667 7.26667 14.0667 6.66667 13.3334 6.66667ZM26.6667 6.66667H18.6667C17.9334 6.66667 17.3334 7.26667 17.3334 8V24H26.6667V6.66667Z" fill="#3A3634"/>
</g>
</g>
</svg>
